<?xml version="1.0" standalone="no"?>
<!DOCTYPE svg PUBLIC "-//W3C//DTD SVG 20010904//EN"
 "http://www.w3.org/TR/2001/REC-SVG-20010904/DTD/svg10.dtd">
<svg version="1.0" xmlns="http://www.w3.org/2000/svg"
 width="1920.000000pt" height="1080.000000pt" viewBox="0 0 1920.000000 1080.000000"
 preserveAspectRatio="xMidYMid meet">

<g transform="translate(0.000000,1080.000000) scale(0.100000,-0.100000)"
fill="#000000" stroke="none">
<path d="M9140 9473 c-970 -21 -2083 -101 -3380 -244 -430 -47 -593 -74 -668
-110 -78 -38 -160 -118 -196 -191 -91 -185 -252 -1583 -296 -2573 -21 -464
-12 -1237 20 -1740 49 -757 199 -2012 305 -2551 37 -189 60 -248 128 -321 114
-124 178 -142 727 -202 1147 -126 1967 -190 3005 -233 377 -15 1559 -15 1930
0 975 41 1717 96 2725 202 362 39 520 64 588 95 70 32 175 137 207 207 32 72
74 293 134 713 321 2230 341 3640 81 5720 -52 409 -92 630 -129 711 -35 76
-118 160 -195 197 -71 35 -253 64 -706 111 -1628 171 -2985 237 -4280 209z
m20 -2562 c14 -10 32 -30 40 -44 13 -23 12 -31 -2 -76 l-16 -50 111 -73 c131
-86 173 -121 193 -160 8 -16 26 -82 40 -146 13 -64 26 -122 28 -128 8 -22 101
20 161 73 62 56 61 52 64 201 l1 62 136 -4 c76 -3 140 -9 145 -13 4 -4 4 -132
-1 -283 -5 -151 -11 -337 -13 -412 l-3 -138 31 -1 c16 0 121 0 233 1 l203 1
-3 -143 -3 -143 -380 0 -379 0 3 184 3 183 -49 -6 c-83 -11 -119 -10 -153 7
-18 10 -38 17 -44 17 -6 0 -47 -36 -91 -81 -93 -93 -126 -114 -253 -159 l-92
-33 -56 -83 -55 -83 17 -61 c18 -63 24 -68 64 -45 36 21 73 18 88 -6 11 -18
10 -26 -11 -62 -32 -54 -168 -197 -187 -197 -21 0 -115 104 -147 162 l-27 49
-50 -7 c-28 -3 -68 -6 -91 -6 -34 1 -48 -6 -93 -47 l-53 -47 21 -48 c21 -45
21 -49 4 -67 -9 -10 -27 -19 -39 -19 -21 0 -175 122 -175 139 0 4 -11 14 -25
21 -52 28 -44 46 63 146 91 85 100 97 93 121 -4 14 -17 33 -29 41 -20 13 -22
11 -43 -32 -12 -26 -31 -52 -43 -58 -11 -6 -38 -25 -58 -41 -36 -29 -39 -29
-115 -22 -62 5 -83 12 -103 30 -14 13 -37 28 -51 34 -33 12 -69 83 -69 137 0
83 78 194 153 220 39 14 39 6 -10 239 -45 217 -50 272 -30 312 9 16 68 79 132
139 109 103 121 111 217 150 l102 42 11 53 c24 117 83 177 203 205 30 7 59 11
65 9 7 -2 24 -6 39 -9 15 -4 44 -20 63 -37 l35 -31 68 70 c37 39 78 72 92 75
39 7 93 -3 120 -22z m-1530 -357 c98 -18 188 -61 223 -108 58 -76 72 -116 72
-211 0 -63 -5 -103 -18 -133 -19 -46 -18 -48 24 -102 85 -108 74 -260 -28
-383 -119 -143 -267 -190 -583 -185 l-165 3 0 565 0 565 70 3 c39 1 79 4 90 5
51 6 238 -5 315 -19z m3528 6 c23 0 23 0 20 -137 l-3 -138 -125 -3 c-69 -1
-131 -5 -137 -7 -10 -3 -13 -97 -13 -425 l0 -421 -142 3 -143 3 -2 410 c-2
226 -5 415 -8 422 -3 9 -44 13 -137 15 l-133 3 0 135 0 135 330 5 c182 3 362
4 400 3 39 -1 80 -2 93 -3z m593 -11 c46 -12 130 -42 187 -66 85 -38 102 -49
101 -67 0 -11 -19 -70 -42 -131 -35 -91 -46 -110 -62 -108 -11 0 -70 22 -132
47 -126 52 -215 67 -248 43 -20 -15 -20 -16 8 -45 16 -17 84 -58 150 -92 264
-135 336 -214 345 -377 4 -74 2 -88 -22 -137 -40 -82 -113 -138 -225 -172 -55
-17 -228 -18 -303 -3 -108 22 -272 86 -265 103 65 162 91 223 97 229 4 5 65
-6 136 -24 151 -38 254 -44 282 -15 16 17 15 19 -15 44 -32 27 -89 60 -198
115 -79 39 -174 107 -213 152 -140 159 -90 393 103 481 104 48 192 54 316 23z
m-421 -2004 l0 -175 -1730 0 -1730 0 0 175 0 175 1730 0 1730 0 0 -175z
m-2340 -463 c0 -86 4 -132 12 -140 9 -9 5 -12 -17 -12 l-30 0 2 122 c1 68 4
131 8 141 17 43 25 8 25 -111z m-80 68 c26 -26 26 -81 1 -104 -13 -12 -31 -16
-58 -14 -38 4 -32 11 20 22 22 5 27 12 27 37 0 39 -20 59 -59 59 l-31 0 0
-100 c0 -82 3 -100 15 -100 8 0 15 -4 15 -10 0 -5 -20 -10 -45 -10 -25 0 -45
5 -45 10 0 6 7 10 15 10 24 0 22 188 -2 206 -16 12 -8 13 55 14 59 0 76 -4 92
-20z m1300 5 c0 -8 -7 -15 -15 -15 -8 0 -15 7 -15 15 0 8 7 15 15 15 8 0 15
-7 15 -15z m103 -56 l22 0 -22 -11 c-20 -10 -23 -19 -23 -75 0 -62 1 -64 22
-57 21 6 21 6 5 -10 -9 -10 -25 -16 -35 -14 -14 3 -18 16 -20 73 -2 39 -7 74
-12 79 -6 6 0 17 13 29 19 16 22 17 25 3 2 -9 13 -16 25 -17z m-103 -67 c0
-47 5 -83 12 -90 9 -9 5 -12 -17 -12 l-30 0 1 79 c1 44 5 84 8 90 17 27 26 5
26 -67z m-1059 46 c31 -39 24 -48 -36 -48 -59 0 -64 -6 -45 -54 7 -20 17 -26
39 -26 15 0 34 7 41 15 7 9 15 13 18 10 14 -14 -34 -45 -69 -45 -32 0 -39 4
-51 30 -7 17 -16 30 -20 30 -5 0 -8 9 -8 20 0 11 5 20 10 20 6 0 10 6 10 14 0
7 7 19 15 26 8 7 12 16 9 21 -3 5 11 9 31 9 26 0 42 -7 56 -22z m167 -3 c7
-14 12 -47 12 -73 0 -27 4 -52 10 -58 7 -7 -9 -10 -47 -11 -45 -1 -62 3 -75
17 -24 26 -22 38 7 46 14 3 25 10 25 15 0 5 9 9 19 9 25 0 34 14 26 40 -8 26
-37 26 -53 0 -13 -21 -42 -28 -42 -10 0 6 4 10 9 10 5 0 13 9 16 20 5 15 15
20 44 20 31 0 40 -5 49 -25z m150 5 c18 -29 4 -45 -18 -20 -9 11 -24 20 -33
20 -9 0 -19 5 -22 10 -4 6 7 10 27 10 23 0 37 -7 46 -20z m163 -2 c31 -39 24
-48 -36 -48 -59 0 -64 -6 -45 -54 7 -20 17 -26 39 -26 15 0 34 7 41 15 7 9 15
13 18 10 14 -14 -34 -45 -69 -45 -32 0 -39 4 -51 30 -7 17 -16 30 -20 30 -5 0
-8 9 -8 20 0 11 5 20 10 20 6 0 10 6 10 14 0 7 7 19 15 26 8 7 12 16 9 21 -3
5 11 9 31 9 26 0 42 -7 56 -22z m269 12 c0 -5 -4 -10 -10 -10 -5 0 -10 -7 -10
-15 0 -8 4 -15 9 -15 5 0 12 -19 16 -42 l7 -43 12 32 c13 38 26 52 26 30 0
-27 -34 -97 -47 -97 -7 0 -15 16 -19 35 -3 19 -10 35 -15 35 -5 0 -10 10 -10
23 -1 16 -2 18 -6 5 -6 -24 -23 -23 -23 2 0 11 5 20 10 20 6 0 10 7 10 15 0
11 -11 15 -36 15 -35 0 -35 -1 -29 -31 9 -41 35 -90 35 -66 0 9 5 17 10 17 13
0 13 -10 -2 -43 -15 -31 -38 -36 -38 -7 0 11 -4 20 -8 20 -5 0 -14 25 -21 55
-7 30 -17 55 -22 55 -5 0 -9 5 -9 10 0 6 35 10 85 10 50 0 85 -4 85 -10z m77
-15 c-13 -28 -27 -33 -27 -10 0 8 -4 15 -10 15 -5 0 -10 5 -10 10 0 6 13 10
29 10 27 0 28 -1 18 -25z m141 0 c7 -14 12 -47 12 -73 0 -27 4 -52 10 -58 7
-7 -9 -10 -47 -11 -45 -1 -62 3 -75 17 -24 26 -22 38 7 46 14 3 25 10 25 15 0
5 9 9 19 9 25 0 34 14 26 40 -8 26 -37 26 -53 0 -13 -21 -42 -28 -42 -10 0 6
4 10 9 10 5 0 13 9 16 20 5 15 15 20 44 20 31 0 40 -5 49 -25z m-706 -34 c2
-3 17 -13 33 -21 36 -19 43 -50 16 -74 -24 -22 -80 -18 -95 6 -14 24 -1 34 19
14 18 -18 33 -20 54 -7 12 8 12 12 2 25 -7 8 -22 18 -34 22 -22 7 -47 28 -47
39 0 3 6 12 13 20 10 12 14 11 24 -2 7 -9 14 -19 15 -22z m978 -96 c0 -8 -7
-15 -15 -15 -8 0 -15 7 -15 15 0 8 7 15 15 15 8 0 15 -7 15 -15z m50 0 c0 -8
-7 -15 -15 -15 -8 0 -15 7 -15 15 0 8 7 15 15 15 8 0 15 -7 15 -15z"/>
<path d="M8658 6795 c-20 -7 -48 -21 -63 -31 -33 -22 -67 -87 -63 -122 3 -23
8 -27 39 -30 39 -3 166 41 227 78 49 30 51 48 9 87 -41 37 -83 42 -149 18z"/>
<path d="M9077 6670 c-157 -118 -337 -164 -493 -124 l-61 15 -90 -35 c-50 -20
-95 -36 -101 -36 -5 0 -8 -9 -5 -20 3 -11 0 -20 -6 -20 -6 0 -11 5 -11 10 0
16 -12 11 -45 -15 -28 -23 -29 -25 -11 -38 12 -9 15 -16 8 -21 -6 -3 -15 2
-21 11 -9 16 -20 8 -91 -62 -87 -86 -105 -109 -94 -126 4 -6 8 -29 10 -51 1
-23 10 -46 21 -54 13 -11 14 -17 6 -20 -15 -6 -18 -44 -4 -44 5 0 8 -18 7 -41
0 -28 5 -45 17 -54 19 -14 23 -35 6 -35 -7 0 -8 -7 -4 -17 4 -10 11 -40 16
-67 5 -28 15 -54 24 -59 13 -7 14 -12 4 -23 -14 -17 -3 -32 12 -17 9 9 17 8
30 0 15 -9 24 -9 39 0 20 13 37 2 25 -17 -3 -5 3 -10 14 -10 14 0 21 -6 21
-20 0 -14 5 -18 17 -13 13 5 15 2 11 -15 -7 -24 14 -93 28 -93 5 0 8 -7 8 -15
-1 -8 6 -14 16 -14 10 0 20 -4 22 -10 2 -5 29 -29 61 -53 47 -35 63 -42 91
-39 25 3 33 8 29 18 -3 8 1 14 11 14 9 0 16 -5 16 -10 0 -6 11 -5 28 3 15 8
32 12 39 10 7 -3 9 3 6 16 -6 23 6 28 24 10 14 -14 73 9 73 28 0 7 7 13 15 13
8 0 15 -4 15 -10 0 -14 61 15 72 34 8 14 13 15 24 5 12 -9 21 -9 42 2 15 8 31
20 35 27 5 7 17 10 27 7 20 -6 70 13 70 28 0 5 9 7 21 4 24 -6 89 18 89 34 0
6 9 8 21 4 18 -6 20 -4 14 14 -5 16 -2 21 10 21 11 0 15 -5 11 -15 -12 -32 19
-12 92 58 175 168 202 198 202 229 0 53 -91 492 -108 521 -20 34 -275 208
-303 206 -8 0 -31 -13 -52 -29z m314 -230 c5 0 9 -7 9 -15 0 -11 -7 -14 -25
-9 -31 8 -105 -19 -130 -46 -21 -24 -35 -26 -35 -5 0 32 115 90 158 78 8 -1
18 -3 23 -3z m-1091 -10 c0 -5 -4 -10 -10 -10 -5 0 -10 5 -10 10 0 6 5 10 10
10 6 0 10 -4 10 -10z m70 0 c0 -5 -7 -10 -15 -10 -8 0 -15 5 -15 10 0 6 7 10
15 10 8 0 15 -4 15 -10z m60 0 c0 -5 -4 -10 -10 -10 -5 0 -10 5 -10 10 0 6 5
10 10 10 6 0 10 -4 10 -10z m208 -83 c60 -39 107 -77 120 -98 11 -19 28 -76
38 -126 16 -91 14 -143 -7 -143 -6 0 -8 7 -5 17 8 19 -11 83 -25 83 -5 0 -9 7
-9 15 0 8 5 15 11 15 7 0 8 7 4 18 -5 9 -9 26 -10 37 -5 57 -25 85 -95 138
-25 18 -43 24 -59 20 -18 -5 -22 -2 -19 13 2 11 -3 19 -12 19 -20 0 -71 46
-64 57 8 13 21 7 132 -65z m-308 47 c0 -8 -4 -12 -10 -9 -5 3 -10 10 -10 16 0
5 5 9 10 9 6 0 10 -7 10 -16z m70 7 c0 -6 -4 -13 -10 -16 -5 -3 -10 1 -10 9 0
9 5 16 10 16 6 0 10 -4 10 -9z m70 1 c0 -13 -12 -22 -22 -16 -10 6 -1 24 13
24 5 0 9 -4 9 -8z m-240 -37 c0 -8 -4 -15 -10 -15 -5 0 -10 7 -10 15 0 8 5 15
10 15 6 0 10 -7 10 -15z m67 -11 c-9 -9 -28 6 -21 18 4 6 10 6 17 -1 6 -6 8
-13 4 -17z m64 3 c-13 -13 -26 -3 -16 12 3 6 11 8 17 5 6 -4 6 -10 -1 -17z
m70 0 c-13 -13 -26 -3 -16 12 3 6 11 8 17 5 6 -4 6 -10 -1 -17z m69 2 c0 -5
-4 -9 -10 -9 -5 0 -10 7 -10 16 0 8 5 12 10 9 6 -3 10 -10 10 -16z m-300 -29
c0 -5 -7 -10 -15 -10 -8 0 -15 5 -15 10 0 6 7 10 15 10 8 0 15 -4 15 -10z m70
0 c0 -5 -7 -10 -15 -10 -8 0 -15 5 -15 10 0 6 7 10 15 10 8 0 15 -4 15 -10z
m60 0 c0 -5 -4 -10 -10 -10 -5 0 -10 5 -10 10 0 6 5 10 10 10 6 0 10 -4 10
-10z m70 0 c0 -5 -4 -10 -10 -10 -5 0 -10 5 -10 10 0 6 5 10 10 10 6 0 10 -4
10 -10z m70 0 c0 -5 -7 -10 -15 -10 -8 0 -15 5 -15 10 0 6 7 10 15 10 8 0 15
-4 15 -10z m70 0 c0 -5 -7 -10 -15 -10 -8 0 -15 5 -15 10 0 6 7 10 15 10 8 0
15 -4 15 -10z m863 -20 c56 -44 88 -199 52 -253 -38 -58 -84 -41 -129 47 -36
71 -41 172 -11 206 23 26 55 26 88 0z m-385 -9 c4 -10 -2 -12 -22 -7 -39 10
-98 -10 -133 -44 -20 -20 -34 -27 -38 -20 -9 14 28 54 69 74 38 19 117 17 124
-3z m-858 -6 c0 -8 -4 -15 -10 -15 -5 0 -10 7 -10 15 0 8 5 15 10 15 6 0 10
-7 10 -15z m70 0 c0 -8 -4 -15 -10 -15 -5 0 -10 7 -10 15 0 8 5 15 10 15 6 0
10 -7 10 -15z m64 -6 c-3 -5 -10 -7 -15 -3 -5 3 -7 10 -3 15 3 5 10 7 15 3 5
-3 7 -10 3 -15z m70 0 c-3 -5 -10 -7 -15 -3 -5 3 -7 10 -3 15 3 5 10 7 15 3 5
-3 7 -10 3 -15z m68 6 c0 -5 -5 -11 -11 -13 -6 -2 -11 4 -11 13 0 9 5 15 11
13 6 -2 11 -8 11 -13z m68 0 c0 -8 -4 -15 -10 -15 -5 0 -10 7 -10 15 0 8 5 15
10 15 6 0 10 -7 10 -15z m70 7 c0 -13 -12 -22 -22 -16 -10 6 -1 24 13 24 5 0
9 -4 9 -8z m64 -13 c-3 -5 -10 -7 -15 -3 -5 3 -7 10 -3 15 3 5 10 7 15 3 5 -3
7 -10 3 -15z m-507 -35 c-9 -9 -28 6 -21 18 4 6 10 6 17 -1 6 -6 8 -13 4 -17z
m73 5 c0 -5 -7 -9 -15 -9 -15 0 -20 12 -9 23 8 8 24 -1 24 -14z m65 1 c-3 -5
-10 -10 -16 -10 -5 0 -9 5 -9 10 0 6 7 10 16 10 8 0 12 -4 9 -10z m65 0 c0 -5
-4 -10 -10 -10 -5 0 -10 5 -10 10 0 6 5 10 10 10 6 0 10 -4 10 -10z m70 0 c0
-5 -4 -10 -10 -10 -5 0 -10 5 -10 10 0 6 5 10 10 10 6 0 10 -4 10 -10z m70 0
c0 -5 -7 -10 -15 -10 -8 0 -15 5 -15 10 0 6 7 10 15 10 8 0 15 -4 15 -10z m65
0 c-3 -5 -10 -10 -16 -10 -5 0 -9 5 -9 10 0 6 7 10 16 10 8 0 12 -4 9 -10z
m65 0 c0 -5 -4 -10 -10 -10 -5 0 -10 5 -10 10 0 6 5 10 10 10 6 0 10 -4 10
-10z m70 0 c0 -5 -4 -10 -10 -10 -5 0 -10 5 -10 10 0 6 5 10 10 10 6 0 10 -4
10 -10z m-572 -31 c-2 -6 -8 -10 -13 -10 -5 0 -11 4 -13 10 -2 6 4 11 13 11 9
0 15 -5 13 -11z m62 1 c0 -5 -4 -10 -10 -10 -5 0 -10 5 -10 10 0 6 5 10 10 10
6 0 10 -4 10 -10z m70 0 c0 -5 -4 -10 -10 -10 -5 0 -10 5 -10 10 0 6 5 10 10
10 6 0 10 -4 10 -10z m70 2 c0 -13 -12 -22 -22 -16 -10 6 -1 24 13 24 5 0 9
-4 9 -8z m160 -15 c19 -9 44 -15 55 -14 14 1 19 -3 17 -15 -2 -13 4 -18 18
-18 17 0 20 -4 15 -21 -6 -18 -4 -20 15 -14 20 6 22 4 17 -14 -3 -13 4 -34 19
-56 13 -20 24 -39 24 -42 0 -3 8 -11 17 -18 13 -10 15 -16 6 -27 -8 -9 -9 -19
-3 -28 6 -8 10 -35 10 -60 0 -25 -4 -52 -10 -60 -5 -9 -5 -19 1 -27 12 -14 2
-36 -12 -28 -5 4 -9 -1 -9 -10 0 -19 -78 -95 -97 -95 -7 0 -12 -5 -11 -11 2
-6 -3 -14 -9 -16 -7 -3 -13 2 -13 11 0 9 -8 16 -20 16 -12 0 -20 -7 -20 -16 0
-9 -6 -14 -12 -11 -7 2 -12 12 -10 22 3 13 -1 16 -13 11 -19 -7 -167 135 -163
156 2 8 -4 12 -14 10 -19 -3 -26 24 -8 30 14 4 -11 68 -27 68 -7 0 -13 7 -13
15 0 8 5 15 10 15 6 0 10 9 10 20 0 11 -4 20 -10 20 -5 0 -10 7 -10 15 0 8 6
15 14 15 16 0 27 47 19 79 -4 15 -1 21 11 21 9 0 16 5 16 12 0 6 17 28 38 48
31 30 44 36 77 35 22 -1 56 -9 75 -18z m40 8 c0 -8 -4 -15 -10 -15 -5 0 -10 7
-10 15 0 8 5 15 10 15 6 0 10 -7 10 -15z m70 6 c0 -6 -4 -13 -10 -16 -5 -3
-10 1 -10 9 0 9 5 16 10 16 6 0 10 -4 10 -9z m68 -2 c-2 -6 -8 -10 -13 -10 -5
0 -11 4 -13 10 -2 6 4 11 13 11 9 0 15 -5 13 -11z m63 -2 c-1 -12 -15 -9 -19
4 -3 6 1 10 8 8 6 -3 11 -8 11 -12z m-574 -43 c-9 -9 -28 6 -21 18 4 6 10 6
17 -1 6 -6 8 -13 4 -17z m67 5 c-3 -5 -10 -7 -15 -3 -5 3 -7 10 -3 15 3 5 10
7 15 3 5 -3 7 -10 3 -15z m67 -2 c-13 -13 -26 -3 -16 12 3 6 11 8 17 5 6 -4 6
-10 -1 -17z m335 -4 c-10 -10 -19 5 -10 18 6 11 8 11 12 0 2 -7 1 -15 -2 -18z
m74 12 c0 -8 -4 -15 -10 -15 -5 0 -10 7 -10 15 0 8 5 15 10 15 6 0 10 -7 10
-15z m67 -11 c-9 -9 -28 6 -21 18 4 6 10 6 17 -1 6 -6 8 -13 4 -17z m271 10
c48 -33 90 -163 73 -223 -13 -42 -38 -71 -63 -71 -25 0 -66 45 -90 98 -34 75
-22 194 20 205 30 8 37 7 60 -9z m-908 -34 c0 -5 -7 -10 -15 -10 -8 0 -15 5
-15 10 0 6 7 10 15 10 8 0 15 -4 15 -10z m60 0 c0 -5 -4 -10 -10 -10 -5 0 -10
5 -10 10 0 6 5 10 10 10 6 0 10 -4 10 -10z m70 0 c0 -5 -4 -10 -10 -10 -5 0
-10 5 -10 10 0 6 5 10 10 10 6 0 10 -4 10 -10z m410 0 c0 -5 -7 -10 -15 -10
-8 0 -15 5 -15 10 0 6 7 10 15 10 8 0 15 -4 15 -10z m60 0 c0 -5 -4 -10 -10
-10 -5 0 -10 5 -10 10 0 6 5 10 10 10 6 0 10 -4 10 -10z m-570 -28 c0 -13 -12
-22 -22 -16 -10 6 -1 24 13 24 5 0 9 -4 9 -8z m70 0 c0 -13 -12 -22 -22 -16
-10 6 -1 24 13 24 5 0 9 -4 9 -8z m470 -1 c0 -6 -4 -13 -10 -16 -5 -3 -10 1
-10 9 0 9 5 16 10 16 6 0 10 -4 10 -9z m70 1 c0 -13 -12 -22 -22 -16 -10 6 -1
24 13 24 5 0 9 -4 9 -8z m-584 -49 c-10 -10 -19 5 -10 18 6 11 8 11 12 0 2 -7
1 -15 -2 -18z m74 12 c0 -8 -4 -15 -10 -15 -5 0 -10 7 -10 15 0 8 5 15 10 15
6 0 10 -7 10 -15z m410 -6 c0 -5 -7 -9 -15 -9 -15 0 -20 12 -9 23 8 8 24 -1
24 -14z m61 -2 c-13 -13 -26 -3 -16 12 3 6 11 8 17 5 6 -4 6 -10 -1 -17z
m-571 -27 c0 -5 -7 -10 -16 -10 -8 0 -12 5 -9 10 3 6 10 10 16 10 5 0 9 -4 9
-10z m70 0 c0 -5 -7 -10 -15 -10 -8 0 -15 5 -15 10 0 6 7 10 15 10 8 0 15 -4
15 -10z m470 0 c0 -5 -4 -10 -10 -10 -5 0 -10 5 -10 10 0 6 5 10 10 10 6 0 10
-4 10 -10z m70 0 c0 -5 -7 -10 -16 -10 -8 0 -12 5 -9 10 3 6 10 10 16 10 5 0
9 -4 9 -10z m530 -5 c31 -38 -47 -97 -85 -65 -22 18 -18 36 11 59 32 25 57 27
74 6z m-1110 -30 c0 -8 -4 -15 -10 -15 -5 0 -10 7 -10 15 0 8 5 15 10 15 6 0
10 -7 10 -15z m542 0 c0 -5 -5 -11 -11 -13 -6 -2 -11 4 -11 13 0 9 5 15 11 13
6 -2 11 -8 11 -13z m68 0 c0 -8 -4 -15 -10 -15 -5 0 -10 7 -10 15 0 8 5 15 10
15 6 0 10 -7 10 -15z m-643 -41 c-9 -9 -28 6 -21 18 4 6 10 6 17 -1 6 -6 8
-13 4 -17z m73 5 c0 -5 -7 -9 -15 -9 -15 0 -20 12 -9 23 8 8 24 -1 24 -14z
m540 1 c0 -5 -4 -10 -9 -10 -6 0 -13 5 -16 10 -3 6 1 10 9 10 9 0 16 -4 16
-10z m588 -55 c-3 -34 -12 -62 -23 -75 -10 -11 -13 -20 -7 -20 7 0 12 -7 12
-15 0 -18 -17 -20 -22 -4 -3 8 -8 7 -18 -2 -8 -8 -28 -20 -44 -27 -27 -12 -32
-11 -54 12 -18 17 -26 39 -30 74 l-4 49 48 7 c27 3 67 17 89 31 22 13 44 25
49 25 5 0 6 -25 4 -55z m-1168 25 c0 -5 -4 -10 -10 -10 -5 0 -10 5 -10 10 0 6
5 10 10 10 6 0 10 -4 10 -10z m540 -6 c0 -8 -4 -12 -10 -9 -5 3 -10 10 -10 16
0 5 5 9 10 9 6 0 10 -7 10 -16z m70 6 c0 -5 -4 -10 -10 -10 -5 0 -10 5 -10 10
0 6 5 10 10 10 6 0 10 -4 10 -10z m-573 -46 c-9 -9 -28 6 -21 18 4 6 10 6 17
-1 6 -6 8 -13 4 -17z m540 0 c-9 -9 -28 6 -21 18 4 6 10 6 17 -1 6 -6 8 -13 4
-17z m64 3 c-13 -13 -26 -3 -16 12 3 6 11 8 17 5 6 -4 6 -10 -1 -17z m679 3
c0 -5 -5 -10 -11 -10 -5 0 -7 5 -4 10 3 6 8 10 11 10 2 0 4 -4 4 -10z m-1320
-30 c0 -5 -4 -10 -10 -10 -5 0 -10 5 -10 10 0 6 5 10 10 10 6 0 10 -4 10 -10z
m70 0 c0 -5 -4 -10 -10 -10 -5 0 -10 5 -10 10 0 6 5 10 10 10 6 0 10 -4 10
-10z m475 0 c3 -5 -1 -10 -9 -10 -9 0 -16 5 -16 10 0 6 4 10 9 10 6 0 13 -4
16 -10z m65 0 c0 -5 -4 -10 -10 -10 -5 0 -10 5 -10 10 0 6 5 10 10 10 6 0 10
-4 10 -10z m680 0 c0 -5 -4 -10 -10 -10 -5 0 -10 5 -10 10 0 6 5 10 10 10 6 0
10 -4 10 -10z m-1256 -41 c-3 -5 -10 -7 -15 -3 -5 3 -7 10 -3 15 3 5 10 7 15
3 5 -3 7 -10 3 -15z m546 13 c0 -13 -12 -22 -22 -16 -10 6 -1 24 13 24 5 0 9
-4 9 -8z m64 -13 c-3 -5 -10 -7 -15 -3 -5 3 -7 10 -3 15 3 5 10 7 15 3 5 -3 7
-10 3 -15z m540 0 c-3 -5 -10 -7 -15 -3 -5 3 -7 10 -3 15 3 5 10 7 15 3 5 -3
7 -10 3 -15z m67 8 c-1 -12 -15 -9 -19 4 -3 6 1 10 8 8 6 -3 11 -8 11 -12z
m-1251 -32 c0 -8 -4 -15 -10 -15 -5 0 -10 7 -10 15 0 8 5 15 10 15 6 0 10 -7
10 -15z m66 -12 c-10 -10 -19 5 -10 18 6 11 8 11 12 0 2 -7 1 -15 -2 -18z
m475 4 c-13 -13 -26 -3 -16 12 3 6 11 8 17 5 6 -4 6 -10 -1 -17z m65 -4 c-10
-10 -19 5 -10 18 6 11 8 11 12 0 2 -7 1 -15 -2 -18z m614 7 c0 -5 -4 -10 -10
-10 -5 0 -10 5 -10 10 0 6 5 10 10 10 6 0 10 -4 10 -10z m-1180 -30 c0 -5 -7
-10 -15 -10 -8 0 -15 5 -15 10 0 6 7 10 15 10 8 0 15 -4 15 -10z m70 0 c0 -5
-7 -10 -15 -10 -8 0 -15 5 -15 10 0 6 7 10 15 10 8 0 15 -4 15 -10z m470 0 c0
-5 -7 -10 -16 -10 -8 0 -12 5 -9 10 3 6 10 10 16 10 5 0 9 -4 9 -10z m70 0 c0
-5 -7 -10 -15 -10 -8 0 -15 5 -15 10 0 6 7 10 15 10 8 0 15 -4 15 -10z m330 0
c0 -5 -4 -10 -10 -10 -5 0 -10 5 -10 10 0 6 5 10 10 10 6 0 10 -4 10 -10z
m140 0 c0 -5 -7 -10 -16 -10 -8 0 -12 5 -9 10 3 6 10 10 16 10 5 0 9 -4 9 -10z
m70 0 c0 -5 -7 -10 -15 -10 -8 0 -15 5 -15 10 0 6 7 10 15 10 8 0 15 -4 15
-10z m-1120 -35 c0 -8 -4 -15 -10 -15 -5 0 -10 7 -10 15 0 8 5 15 10 15 6 0
10 -7 10 -15z m70 7 c0 -13 -12 -22 -22 -16 -10 6 -1 24 13 24 5 0 9 -4 9 -8z
m401 -5 c-1 -12 -15 -9 -19 4 -3 6 1 10 8 8 6 -3 11 -8 11 -12z m69 -2 c0 -8
-4 -15 -10 -15 -5 0 -10 7 -10 15 0 8 5 15 10 15 6 0 10 -7 10 -15z m65 6 c3
-5 1 -12 -5 -16 -5 -3 -10 1 -10 9 0 18 6 21 15 7z m205 -6 c0 -8 -4 -15 -10
-15 -5 0 -10 7 -10 15 0 8 5 15 10 15 6 0 10 -7 10 -15z m70 0 c0 -8 -4 -15
-9 -15 -13 0 -22 16 -14 24 11 11 23 6 23 -9z m64 -6 c-3 -5 -10 -7 -15 -3 -5
3 -7 10 -3 15 3 5 10 7 15 3 5 -3 7 -10 3 -15z m70 0 c-3 -5 -10 -7 -15 -3 -5
3 -7 10 -3 15 3 5 10 7 15 3 5 -3 7 -10 3 -15z m68 6 c0 -5 -5 -11 -11 -13 -6
-2 -11 4 -11 13 0 9 5 15 11 13 6 -2 11 -8 11 -13z m-332 1 c0 -11 -19 -15
-25 -6 -3 5 1 10 9 10 9 0 16 -2 16 -4z m-654 -43 c-10 -10 -19 5 -10 18 6 11
8 11 12 0 2 -7 1 -15 -2 -18z m344 7 c0 -5 -4 -10 -10 -10 -5 0 -10 5 -10 10
0 6 5 10 10 10 6 0 10 -4 10 -10z m70 0 c0 -5 -4 -10 -9 -10 -6 0 -13 5 -16
10 -3 6 1 10 9 10 9 0 16 -4 16 -10z m70 0 c0 -5 -7 -10 -15 -10 -8 0 -15 5
-15 10 0 6 7 10 15 10 8 0 15 -4 15 -10z m60 0 c0 -5 -4 -10 -10 -10 -5 0 -10
5 -10 10 0 6 5 10 10 10 6 0 10 -4 10 -10z m70 0 c0 -5 -4 -10 -10 -10 -5 0
-10 5 -10 10 0 6 5 10 10 10 6 0 10 -4 10 -10z m70 0 c0 -5 -4 -10 -10 -10 -5
0 -10 5 -10 10 0 6 5 10 10 10 6 0 10 -4 10 -10z m70 0 c0 -5 -7 -10 -15 -10
-8 0 -15 5 -15 10 0 6 7 10 15 10 8 0 15 -4 15 -10z m60 0 c0 -5 -4 -10 -10
-10 -5 0 -10 5 -10 10 0 6 5 10 10 10 6 0 10 -4 10 -10z m70 0 c0 -5 -4 -10
-10 -10 -5 0 -10 5 -10 10 0 6 5 10 10 10 6 0 10 -4 10 -10z m70 0 c0 -5 -4
-10 -10 -10 -5 0 -10 5 -10 10 0 6 5 10 10 10 6 0 10 -4 10 -10z m-912 -31
c-2 -6 -8 -10 -13 -10 -5 0 -11 4 -13 10 -2 6 4 11 13 11 9 0 15 -5 13 -11z
m270 0 c-2 -6 -8 -10 -13 -10 -5 0 -11 4 -13 10 -2 6 4 11 13 11 9 0 15 -5 13
-11z m62 -5 c0 -8 -4 -12 -10 -9 -5 3 -10 10 -10 16 0 5 5 9 10 9 6 0 10 -7
10 -16z m70 6 c0 -5 -4 -10 -10 -10 -5 0 -10 5 -10 10 0 6 5 10 10 10 6 0 10
-4 10 -10z m70 1 c0 -6 -4 -13 -10 -16 -5 -3 -10 1 -10 9 0 9 5 16 10 16 6 0
10 -4 10 -9z m68 -2 c-2 -6 -8 -10 -13 -10 -5 0 -11 4 -13 10 -2 6 4 11 13 11
9 0 15 -5 13 -11z m63 -2 c-1 -12 -15 -9 -19 4 -3 6 1 10 8 8 6 -3 11 -8 11
-12z m69 -3 c0 -8 -4 -12 -10 -9 -5 3 -10 10 -10 16 0 5 5 9 10 9 6 0 10 -7
10 -16z m70 6 c0 -5 -4 -10 -10 -10 -5 0 -10 5 -10 10 0 6 5 10 10 10 6 0 10
-4 10 -10z m70 2 c0 -13 -12 -22 -22 -16 -10 6 -1 24 13 24 5 0 9 -4 9 -8z
m-780 -37 c0 -8 -4 -15 -9 -15 -13 0 -22 16 -14 24 11 11 23 6 23 -9z m200 0
c0 -8 -4 -15 -10 -15 -5 0 -10 7 -10 15 0 8 5 15 10 15 6 0 10 -7 10 -15z m70
0 c0 -8 -4 -15 -10 -15 -5 0 -10 7 -10 15 0 8 5 15 10 15 6 0 10 -7 10 -15z
m67 -11 c-9 -9 -28 6 -21 18 4 6 10 6 17 -1 6 -6 8 -13 4 -17z m67 5 c-3 -5
-10 -7 -15 -3 -5 3 -7 10 -3 15 3 5 10 7 15 3 5 -3 7 -10 3 -15z m62 -6 c-10
-10 -19 5 -10 18 6 11 8 11 12 0 2 -7 1 -15 -2 -18z m74 12 c0 -8 -4 -15 -10
-15 -5 0 -10 7 -10 15 0 8 5 15 10 15 6 0 10 -7 10 -15z m67 -11 c-9 -9 -28 6
-21 18 4 6 10 6 17 -1 6 -6 8 -13 4 -17z m67 5 c-3 -5 -10 -7 -15 -3 -5 3 -7
10 -3 15 3 5 10 7 15 3 5 -3 7 -10 3 -15z m67 -2 c-13 -13 -26 -3 -16 12 3 6
11 8 17 5 6 -4 6 -10 -1 -17z m-771 -27 c0 -5 -7 -10 -15 -10 -8 0 -15 5 -15
10 0 6 7 10 15 10 8 0 15 -4 15 -10z m60 0 c0 -5 -4 -10 -10 -10 -5 0 -10 5
-10 10 0 6 5 10 10 10 6 0 10 -4 10 -10z m70 0 c0 -5 -4 -10 -10 -10 -5 0 -10
5 -10 10 0 6 5 10 10 10 6 0 10 -4 10 -10z m70 0 c0 -5 -4 -10 -10 -10 -5 0
-10 5 -10 10 0 6 5 10 10 10 6 0 10 -4 10 -10z m70 0 c0 -5 -7 -10 -15 -10 -8
0 -15 5 -15 10 0 6 7 10 15 10 8 0 15 -4 15 -10z m60 0 c0 -5 -4 -10 -10 -10
-5 0 -10 5 -10 10 0 6 5 10 10 10 6 0 10 -4 10 -10z m70 0 c0 -5 -4 -10 -10
-10 -5 0 -10 5 -10 10 0 6 5 10 10 10 6 0 10 -4 10 -10z m70 0 c0 -5 -4 -10
-10 -10 -5 0 -10 5 -10 10 0 6 5 10 10 10 6 0 10 -4 10 -10z m70 0 c0 -5 -7
-10 -15 -10 -8 0 -15 5 -15 10 0 6 7 10 15 10 8 0 15 -4 15 -10z m70 0 c0 -5
-7 -10 -15 -10 -8 0 -15 5 -15 10 0 6 7 10 15 10 8 0 15 -4 15 -10z m60 0 c0
-5 -4 -10 -10 -10 -5 0 -10 5 -10 10 0 6 5 10 10 10 6 0 10 -4 10 -10z m-640
-35 c0 -8 -4 -15 -10 -15 -5 0 -10 7 -10 15 0 8 5 15 10 15 6 0 10 -7 10 -15z
m70 7 c0 -13 -12 -22 -22 -16 -10 6 -1 24 13 24 5 0 9 -4 9 -8z m64 -13 c-3
-5 -10 -7 -15 -3 -5 3 -7 10 -3 15 3 5 10 7 15 3 5 -3 7 -10 3 -15z m66 5 c0
-8 -4 -12 -10 -9 -5 3 -10 10 -10 16 0 5 5 9 10 9 6 0 10 -7 10 -16z m70 1 c0
-8 -4 -15 -10 -15 -5 0 -10 7 -10 15 0 8 5 15 10 15 6 0 10 -7 10 -15z m70 7
c0 -13 -12 -22 -22 -16 -10 6 -1 24 13 24 5 0 9 -4 9 -8z m64 -13 c-3 -5 -10
-7 -15 -3 -5 3 -7 10 -3 15 3 5 10 7 15 3 5 -3 7 -10 3 -15z m66 6 c0 -8 -4
-15 -10 -15 -5 0 -10 7 -10 15 0 8 5 15 10 15 6 0 10 -7 10 -15z m70 0 c0 -8
-4 -15 -10 -15 -5 0 -10 7 -10 15 0 8 5 15 10 15 6 0 10 -7 10 -15z m-509 -38
c-13 -13 -26 -3 -16 12 3 6 11 8 17 5 6 -4 6 -10 -1 -17z m69 2 c0 -5 -4 -9
-10 -9 -5 0 -10 7 -10 16 0 8 5 12 10 9 6 -3 10 -10 10 -16z m67 -5 c-9 -9
-28 6 -21 18 4 6 10 6 17 -1 6 -6 8 -13 4 -17z m70 0 c-9 -9 -28 6 -21 18 4 6
10 6 17 -1 6 -6 8 -13 4 -17z m64 3 c-13 -13 -26 -3 -16 12 3 6 11 8 17 5 6
-4 6 -10 -1 -17z m139 2 c0 -5 -4 -9 -10 -9 -5 0 -10 7 -10 16 0 8 5 12 10 9
6 -3 10 -10 10 -16z m-70 1 c0 -5 -4 -10 -10 -10 -5 0 -10 5 -10 10 0 6 5 10
10 10 6 0 10 -4 10 -10z m-300 -30 c0 -5 -7 -10 -15 -10 -8 0 -15 5 -15 10 0
6 7 10 15 10 8 0 15 -4 15 -10z m65 0 c3 -5 -1 -10 -9 -10 -9 0 -16 5 -16 10
0 6 4 10 9 10 6 0 13 -4 16 -10z m65 0 c0 -5 -4 -10 -10 -10 -5 0 -10 5 -10
10 0 6 5 10 10 10 6 0 10 -4 10 -10z m70 0 c0 -5 -4 -10 -10 -10 -5 0 -10 5
-10 10 0 6 5 10 10 10 6 0 10 -4 10 -10z m70 0 c0 -5 -7 -10 -15 -10 -8 0 -15
5 -15 10 0 6 7 10 15 10 8 0 15 -4 15 -10z m-240 -35 c0 -8 -4 -15 -10 -15 -5
0 -10 7 -10 15 0 8 5 15 10 15 6 0 10 -7 10 -15z m70 0 c0 -8 -4 -15 -9 -15
-13 0 -22 16 -14 24 11 11 23 6 23 -9z m64 -6 c-3 -5 -10 -7 -15 -3 -5 3 -7
10 -3 15 3 5 10 7 15 3 5 -3 7 -10 3 -15z m-94 -29 c0 -5 -7 -10 -15 -10 -8 0
-15 5 -15 10 0 6 7 10 15 10 8 0 15 -4 15 -10z"/>
<path d="M9331 6264 c-13 -46 -5 -67 23 -60 33 8 54 -15 77 -83 6 -18 7 -9 3
27 -9 92 -42 152 -83 152 -5 0 -15 -16 -20 -36z"/>
<path d="M8390 5974 c0 -42 58 -140 99 -168 70 -49 84 -27 18 27 -37 30 -71
86 -91 150 -8 26 -26 20 -26 -9z"/>
<path d="M8288 5904 c-11 -10 11 -76 36 -109 40 -52 94 -91 108 -77 9 9 4 17
-16 33 -47 37 -68 62 -88 106 -19 43 -31 57 -40 47z"/>
<path d="M8370 5857 c0 -8 9 -22 19 -31 24 -22 37 -5 19 24 -14 23 -38 27 -38
7z"/>
<path d="M8952 6168 c-7 -7 -12 -32 -12 -55 0 -40 2 -43 19 -33 29 15 71 -25
81 -76 l8 -39 1 38 c2 56 -27 144 -52 162 -26 18 -30 18 -45 3z"/>
<path d="M9212 5846 c-34 -11 -38 -29 -8 -34 21 -5 69 26 61 38 -7 11 -8 11
-53 -4z"/>
<path d="M9770 6279 c-28 -22 -53 -46 -56 -54 -6 -16 28 -82 53 -101 17 -13
17 -15 1 -28 -10 -7 -18 -21 -18 -30 0 -9 -11 -28 -24 -41 -27 -27 -24 -35 15
-35 34 0 64 26 77 68 15 45 1 82 -33 82 -15 0 -25 6 -25 14 0 16 27 39 94 78
47 28 58 52 34 76 -23 23 -65 13 -118 -29z"/>
<path d="M9607 6179 c-10 -6 -26 -24 -36 -40 -15 -24 -17 -38 -9 -77 5 -26 9
-66 10 -90 0 -28 6 -46 17 -52 14 -8 14 -11 1 -19 -8 -5 -18 -7 -22 -5 -16 10
-29 -7 -17 -22 9 -10 15 -11 25 -3 9 8 20 5 42 -11 19 -14 37 -20 50 -16 17 6
19 11 12 37 -6 18 -5 41 1 56 8 23 5 31 -23 62 -41 44 -78 97 -78 111 0 16 40
51 50 45 6 -4 10 -23 10 -43 0 -50 25 -86 50 -72 26 14 33 43 20 89 -15 55
-58 76 -103 50z"/>
<path d="M9795 5969 c-16 -10 -40 -19 -52 -19 -16 0 -25 -8 -29 -25 -9 -38 2
-55 35 -55 37 0 81 49 81 91 0 16 -1 29 -2 28 -2 0 -16 -9 -33 -20z"/>
<path d="M8194 5679 c-3 -5 -28 -9 -55 -9 -75 0 -125 -33 -163 -107 -18 -36
-21 -95 -6 -124 16 -29 28 -23 32 18 4 49 28 57 28 9 0 -42 24 -106 39 -106 6
0 11 13 11 29 0 40 20 91 35 91 10 0 12 -14 8 -58 -5 -55 -4 -58 22 -70 23
-11 31 -10 53 4 17 11 21 18 12 24 -8 5 -10 16 -5 31 8 27 63 89 79 89 6 0 12
25 13 55 2 48 -1 59 -27 89 -31 35 -66 51 -76 35z"/>
<path d="M8835 5398 c-37 -12 -254 -16 -312 -5 -39 7 -43 5 -43 -13 0 -12 -26
-44 -62 -79 l-63 -59 20 -22 c11 -12 32 -28 46 -35 24 -13 29 -11 83 33 55 44
61 47 119 47 34 0 85 4 113 9 l52 8 37 -71 c21 -39 40 -71 44 -71 3 0 23 15
44 33 l38 32 -26 84 c-15 46 -24 92 -22 102 6 22 -17 24 -68 7z"/>
<path d="M7446 6263 c-3 -10 -5 -38 -4 -62 l1 -44 69 6 c87 7 122 24 126 59 4
36 -21 48 -113 55 -66 5 -73 4 -79 -14z"/>
<path d="M7485 5862 l-40 -7 -3 -63 c-2 -46 1 -64 11 -68 20 -7 154 22 196 44
48 25 56 67 15 82 -36 14 -129 20 -179 12z"/>
<path d="M10040 4670 l-515 -5 435 -3 c239 -1 465 -5 503 -9 l67 -6 0 -98 0
-99 -612 -1 c-337 -1 -917 -2 -1290 -3 -372 0 -680 2 -684 7 -9 9 -12 182 -3
191 3 4 39 10 80 15 l74 8 -87 2 -88 1 0 -125 0 -125 1305 -2 c718 -2 1475 -3
1683 -3 l377 0 0 130 0 130 -365 0 c-201 0 -597 -2 -880 -5z"/>
<path d="M9066 4065 c-4 -12 3 -15 35 -15 36 0 39 2 25 15 -8 8 -23 15 -34 15
-11 0 -22 -7 -26 -15z"/>
<path d="M9273 4002 c-22 -3 -37 -27 -27 -43 8 -14 44 -11 50 5 10 25 0 41
-23 38z"/>
<path d="M9546 4065 c-4 -12 3 -15 35 -15 36 0 39 2 25 15 -8 8 -23 15 -34 15
-11 0 -22 -7 -26 -15z"/>
<path d="M10073 4002 c-22 -3 -37 -27 -27 -43 8 -14 44 -11 50 5 10 25 0 41
-23 38z"/>
</g>
</svg>
